<svg xmlns="http://www.w3.org/2000/svg" viewBox="0 0 900 900" role="img" aria-label="Rajasthan logo style visual">
  <rect width="900" height="900" rx="70" fill="#ffffff"/>
  <circle cx="450" cy="450" r="305" fill="#0f4fb2"/>
  <path d="M260 334l57-32 45 17 35-30 58 12 45-34 66 12 28 44-19 36 39 25-8 38 30 27-18 49-52-7-43 33-59-5-33 39-56 7-30 48-63 4-32-42-57-8-36-38-52 6-22-34 19-38-33-22 8-43 44-16 16-42z" fill="#ffffff"/>
  <path d="M450 600c-42 0-77-15-105-42 20-6 41-9 63-9 76 0 142 37 192 94-40-27-93-43-150-43z" fill="#a6c8ff" opacity=".85"/>
  <text x="450" y="785" text-anchor="middle" font-family="Arial, sans-serif" font-size="72" font-weight="700" fill="#0f4fb2">RAJASTHAN</text>
</svg>
